<svg xmlns="http://www.w3.org/2000/svg" xmlns:xlink="http://www.w3.org/1999/xlink" width="100%" height="100%" fill-rule="evenodd" stroke-linecap="round" stroke-linejoin="round" stroke-miterlimit="1.414" clip-rule="evenodd" version="1.1" viewBox="0 0 72 47" xml:space="preserve"><g><g transform="matrix(0.375,0,0,0.375,-0,-0) matrix(0.470877,0,0,0.470877,31.1595,-49.2555)"><ellipse cx="135.578" cy="353.467" fill="#768CA4" fill-opacity=".229" rx="60.779" ry="12.167"/></g><g><path fill="#768CA4" stroke="#768CA4" stroke-width="11.49" d="M129.575,298.323L150.221,339.615L108.929,339.615L129.575,298.323Z" transform="matrix(0.375,0,0,0.375,-0,-0) matrix(0.764936,0,0,0.620146,-4.11687,-94.4094)"/></g><g><path fill="none" stroke="#768CA4" stroke-width="24.99" d="M38.777,215.92L353.937,215.92" transform="matrix(0.375,0,0,0.375,-0,-0) matrix(0.558825,0.0395188,-0.0395188,0.558825,-6.1962,-44.0544)"/></g><g><path fill="#FFD557" stroke="#FFD557" stroke-width="13.79" d="M113.961,87.187L224.547,87.187L239.476,178.143L99.02,178.143L113.961,87.187Z" transform="matrix(0.375,0,0,0.375,-0,-0) matrix(0.217025,0.0153475,-0.0153475,0.217025,-1.39303,28.3386)"/></g><g transform="matrix(0.375,0,0,0.375,-0,-0) matrix(0.217025,0.0153475,-0.0153475,0.217025,7.49058,-14.3767)"><circle cx="142.368" cy="255.196" r="25.799" fill="none" stroke="#FFD557" stroke-width="17.87"/></g><g><path fill="#CCC" stroke="#CCC" stroke-width="8.15" d="M113.961,87.187L224.547,87.187L239.476,178.143L99.02,178.143L113.961,87.187Z" transform="matrix(0.375,0,0,0.375,-0,-0) matrix(0.367321,0.0259761,-0.0259761,0.367321,90.4046,7.96618)"/></g><g transform="matrix(0.375,0,0,0.375,-0,-0) matrix(0.367321,0.0259761,-0.0259761,0.367321,105.44,-64.3308)"><circle cx="142.368" cy="255.196" r="25.799" fill="none" stroke="#CCC" stroke-width="19.01"/></g></g></svg>